<svg id="Слой_1" data-name="Слой 1" xmlns="http://www.w3.org/2000/svg" viewBox="0 0 227.99 106.49"><title>Монтажная область 2</title><path d="M212.77,62.65a121.2,121.2,0,0,1-41-10.85C160.2,46.28,149.89,38.66,139.7,31c-9.77-7.38-19.56-14.89-30.51-20.47A69.39,69.39,0,0,0,92.58,4.22,62,62,0,0,0,75.21,3.09C61.79,4,48.91,8.3,37,14.39c-.2.1,0,.4.18.29a101.41,101.41,0,0,1,35-11,65,65,0,0,1,18,.38,64.28,64.28,0,0,1,17.16,5.83c22.45,10.88,39.75,29.81,62,41a121.36,121.36,0,0,0,43.5,12C213,63,213,62.67,212.77,62.65Zm-1.63,6.06a6.36,6.36,0,0,1-2.47.93c-.4.07-.82.09-1.23.13q-1,.09-2,.15-2.46.13-4.92,0a63.12,63.12,0,0,1-9.33-1,81.77,81.77,0,0,1-18.07-5.71C161.4,58,150.9,50.64,140.66,43.1c-10.4-7.65-20.67-15.58-32-21.83a92.72,92.72,0,0,0-17.1-7.54,58.29,58.29,0,0,0-16.75-2.47c-13.5-.13-26.38,3.22-39,7.88-.21.08-.11.41.1.33,11.82-4.38,23.8-7.54,36.47-7.85A59.61,59.61,0,0,1,91.11,14a92,92,0,0,1,18.14,8c23.2,13,42.13,33.07,67.11,42.95a75.59,75.59,0,0,0,20,5.07,57.92,57.92,0,0,0,10.44.15c1-.08,3.95-.37,4.62-1.3C211.73,68.47,211.15,68.55,211.14,68.71Zm-1.42,6.42c-25.43,5.77-50.28-8.77-69.49-23.63-10.08-7.8-19.87-16-30.72-22.75C99.19,22.35,87.72,17,75.42,16.48c-13.72-.59-26.88,3.19-40.26,5.66-.22,0-.12.37.1.33,12.27-2.27,24.2-5.57,36.75-5.7a53.31,53.31,0,0,1,18.15,2.91,94.05,94.05,0,0,1,17.54,8.37c21.81,13.08,38.82,32.12,62.41,42.3,11.89,5.13,26.46,8.2,39.69,5.12C210,75.41,209.93,75.08,209.71,75.13Zm-1.59,6.4c-13,3.11-27.06.17-38.76-5.69-12.23-6.12-22.6-15.09-32.94-23.91-9.9-8.44-20-17-31.8-22.68A81.84,81.84,0,0,0,71.87,21a77,77,0,0,0-38.64,8.84c-.2.1,0,.4.18.29A76.56,76.56,0,0,1,69.07,21.3a81,81,0,0,1,33.83,7.51c24.27,11.19,40.76,33.73,64.2,46.24,12.29,6.56,27.26,10.13,41.11,6.8C208.44,81.81,208.34,81.48,208.13,81.53ZM32.24,34.81a99.66,99.66,0,0,1,15.31-7,49.63,49.63,0,0,1,16-2.58,52.39,52.39,0,0,1,18.39,3.32,145.53,145.53,0,0,1,17.44,8.08c11.61,6.32,22,14.73,32.31,22.92,5.09,4,10.17,8.09,15.38,12a101.92,101.92,0,0,0,16.22,10.39,76.62,76.62,0,0,0,20.84,6.36c6.31,1,13.06,1.8,19.34.2a15.63,15.63,0,0,0,3.46-1.29c.2-.09,0-.39-.18-.29-6.34,3-12.8,2.38-19.58,1.49a80,80,0,0,1-21.79-5.87,90.89,90.89,0,0,1-16.69-10.2c-5.4-3.94-10.63-8.11-15.86-12.26-10.2-8.1-20.42-16.41-31.78-22.85A152.47,152.47,0,0,0,84.2,29.1,54.34,54.34,0,0,0,66.57,25a49.83,49.83,0,0,0-15.93,1.53,78,78,0,0,0-14.86,6c-1.34.68-2.37,1.3-3.7,2C31.87,34.62,32,34.91,32.24,34.81ZM207.37,90.09c-12.12,5.2-25.82,4.53-38.21.65-13.84-4.34-26-12.74-37.26-21.62S109.57,50.37,97.24,42.63c-11.46-7.2-24.33-12.34-38-11.94-9.09.26-17.66,2.89-26,6.31l-1.85.75c-.2.08-.11.41.1.33,3.15-1.24,6.25-2.57,9.46-3.64a65.6,65.6,0,0,1,14.75-3.19C69.52,30,82.72,34.37,94.56,41.39,107.3,48.94,118.44,58.88,130,68.06c11,8.72,22.61,17.13,35.91,21.95,11.76,4.27,25,5.82,37.1,2.07a45.13,45.13,0,0,0,4.47-1.65C207.67,90.34,207.58,90,207.37,90.09ZM204.6,96c-5.68,2.78-12.31,2.69-18.5,2.3A103.73,103.73,0,0,1,166.64,95a154.91,154.91,0,0,1-36-14.35C119.79,74.63,110.06,67.07,100,60,90.23,53.12,79.9,46.72,68.29,43.66a66.49,66.49,0,0,0-38.89,2c-.21.08-.11.41.1.33a66.39,66.39,0,0,1,36.22-2.6c12,2.65,22.73,9,32.74,15.94S118.22,74,128.95,80.07a155.28,155.28,0,0,0,35.52,14.67,110.19,110.19,0,0,0,20.78,3.89c6.51.49,13.53.64,19.52-2.29C205,96.24,204.79,95.95,204.6,96Zm-.87,3.51c-23.77,9-49.26.21-70.43-11.43-11.91-6.55-23.18-14.19-34.9-21.07C87,60.37,74.89,54.27,61.77,52c-12.28-2.17-24.54-1.28-35.29,5.42a.17.17,0,0,0,.18.29c10-6.25,21.3-7.36,32.84-5.73,13.33,1.88,25.69,7.86,37.23,14.53,22.29,12.89,43.42,29.29,69,35,12.65,2.8,25.82,3.05,38.06-1.57C204,99.8,203.94,99.47,203.73,99.55Zm-1,4.15c-11.32,3.56-23.35,2.79-34.83.49-5.8-1.16-11.52-2.7-17.19-4.36A152.77,152.77,0,0,1,132,93.19c-11.78-5.19-22.56-12.3-33.9-18.34s-23.29-11.2-36-13.46c-12.32-2.2-25.31-1.59-36.93,3.33-.2.09-.11.42.1.33C48.69,55.12,74.5,63,95.93,74.12c11.41,5.93,22.18,13.06,33.86,18.47a140.91,140.91,0,0,0,18.08,6.75c5.82,1.78,11.7,3.4,17.64,4.7,12.25,2.67,25.18,3.81,37.32,0A.17.17,0,0,0,202.74,103.71ZM92.57,78.95a104.22,104.22,0,0,0-15-9.16c-10.39-5-21.64-6.33-33.07-5.67-6.71.39-13.37,1.35-20,2.33-.22,0-.21.38,0,.34,11.41-1.68,23-3.37,34.59-2A56.5,56.5,0,0,1,75.7,69.29,92.68,92.68,0,0,1,90.48,77.9c2.56,1.78,5.08,3.62,7.58,5.48a66,66,0,0,1,7.75,6.33c.16.16.4-.09.24-.25C102.07,85.45,97.16,82.22,92.57,78.95ZM37.35,67.68a81.47,81.47,0,0,0-13.31,0c-.22,0-.21.36,0,.34a82.67,82.67,0,0,1,44.49,8.82,81.35,81.35,0,0,1,11,6.8c.18.13.34-.17.17-.3A83,83,0,0,0,37.35,67.68Zm-13.5,1.08c-.22,0-.32.38-.1.37l.11,0A44.67,44.67,0,0,1,51.13,77c.18.13.35-.18.17-.3A45,45,0,0,0,23.85,68.76Z"/></svg>