<?xml version="1.0" encoding="utf-8"?>
<!-- Generator: Adobe Illustrator 21.0.0, SVG Export Plug-In . SVG Version: 6.00 Build 0)  -->
<svg version="1.1" id="Слой_1" xmlns="http://www.w3.org/2000/svg" xmlns:xlink="http://www.w3.org/1999/xlink" x="0px" y="0px"
	 viewBox="0 0 228 106.5" style="enable-background:new 0 0 228 106.5;" xml:space="preserve">
<title>Монтажная область 2</title>
<path d="M182.3,106.5h-1.2c-29.5-14.7-53.6-38.7-82.4-54.8c-8-4.6-16.4-8.3-25.2-11.1c-8.4-2.5-17.2-3.6-26-3.3
	C31.1,37.7,15.5,41.6,0,47.1v-0.5c16.5-5.9,33.4-10,51-9.8c7.9,0,15.7,1.2,23.2,3.4c8.2,2.7,16.2,6.2,23.7,10.4
	c15.7,8.7,30,19.7,44.4,30.3C155.1,90.3,168.1,99.5,182.3,106.5z"/>
<path d="M161.4,106.5h-0.8c-22-14.3-41.1-32.7-64-46.4c-7.7-4.7-15.8-8.6-24.3-11.6c-8.1-2.8-16.6-4.2-25.2-4
	C31.1,44.6,15.7,48.5,0,51.6v-0.5c17.2-3.4,34.2-7.9,51.9-7.1c17.1,0.7,33,8.1,47.3,17c15,9.4,28.6,20.7,42.6,31.6
	C147.9,97.3,154.5,102.1,161.4,106.5z"/>
<path d="M152.3,106.5h-0.8C131.7,90.4,113.5,71.9,90,61.1c-14.7-6.8-30.7-10.4-46.9-10.4c-14.9,0-29.6,3.1-43.1,9.1v-0.5
	c14.7-6.5,30.8-9.6,47-9.1c15.8,0.6,31.3,4.5,45.4,11.4c16.4,7.9,30.4,19.8,44.1,31.5C141.7,97.6,147,102.1,152.3,106.5z"/>
<path d="M117.1,106.5h-0.8C104.2,96.5,92,86.6,78.4,78.6C62,68.8,43.7,62.8,24.5,64.5c-7,0.7-13.8,2.2-20.5,4.4
	c-1.4,0.5-2.7,1-4.1,1.5v-0.5c9.5-3.4,19.2-5.9,29.5-6.2c18.9-0.6,36.8,6.6,52.7,16.6C94.5,88,105.9,97.3,117.1,106.5z"/>
<path d="M88.9,106.5h-0.8c-1.4-1-2.8-2-4.3-3C70,93.8,55.1,85,38.4,81.3C25.7,78.7,12.6,78.8,0,81.5V81c13.8-3,28.2-2.8,42,0.7
	c16.1,4.3,30.4,13.1,44,22.7C87,105.1,87.9,105.8,88.9,106.5z"/>
<path d="M69.9,106.5h-1.2c-12.3-6.2-25.2-11.3-38.9-13.2C19.6,91.8,9.5,91.9,0,94.4v-0.5c10.6-2.8,21.8-2.6,33-0.6
	C45.9,95.5,58.2,100.5,69.9,106.5z"/>
<path d="M34.3,106.5h-3.5c-10.2-1.7-20.6-1.9-30.8-0.2v-0.4c11-1.8,22.4-1.5,33.4,0.5C33.7,106.3,34,106.4,34.3,106.5z"/>
<path d="M229.4,106.5h-2c-15.7-2.7-31-7.7-45.3-14.7c-30.9-15.5-54.8-41.8-86-56.9c-7.5-3.8-15.5-6.5-23.8-8.1
	c-8.3-1.3-16.6-1.5-25-0.5c-16.6,2-32.6,7-47.4,14.7v-0.5c16.1-8.1,33.5-13.8,51.6-15c8.1-0.6,16.2-0.1,24.1,1.6
	c8,1.9,15.8,4.9,23,8.8c15.2,7.7,28.8,18.1,42.3,28.4c14.1,10.6,28.4,21.2,44.5,28.8C199.5,99.5,214.3,104,229.4,106.5z"/>
</svg>
