<?xml version="1.0" encoding="utf-8"?>
<!-- Generator: Adobe Illustrator 21.0.0, SVG Export Plug-In . SVG Version: 6.00 Build 0)  -->
<svg version="1.1" id="Слой_1" xmlns="http://www.w3.org/2000/svg" xmlns:xlink="http://www.w3.org/1999/xlink" x="0px" y="0px"
	 viewBox="0 0 157.3 63.2" style="enable-background:new 0 0 157.3 63.2;" xml:space="preserve">
<title>Монтажная область 2</title>
<path d="M33.8,30.6l0.4-0.3l0.2-0.1c1.5-1,2.8-2.3,4-3.6c1.2-1.4,2.1-2.9,2.8-4.6c0.4,1.9,0.7,3.9,0.9,5.9c0,0.5,0.1,1.1,0.1,1.7
	c-0.9,4.8-3.7,9.8-8.4,14.8C33.5,39.7,33.5,35.1,33.8,30.6 M38.1,24.4c-1.1,1.6-2.6,3-4.2,4.2c0.1-0.9,0.1-1.9,0.2-2.8
	c0.2-2.8,0.5-5.7,0.9-8.5c0.2-1.2,0.4-2.4,0.6-3.6c0.3-1.5,0.5-3,0.7-4.5c1.5,2.4,2.6,4.9,3.5,7.6c0.2,0.7,0.4,1.3,0.6,2
	C40.1,20.8,39.3,22.8,38.1,24.4 M27.1,39.7c0.7,1.3,1.5,2.6,2.3,3.8s1.8,2.3,3,3.2c0.1,1,0.2,2,0.3,3c0.2,2.3,0.5,4.3,0.9,6.3
	c-1.3-1.3-2.4-2.7-3.3-4.3c-1-1.7-1.7-3.5-2.3-5.4c-0.9-2.7-1.4-5.5-1.7-8.3C26.4,38.5,26.7,39.1,27.1,39.7 M32.2,44.4
	c-0.5-0.6-1-1.1-1.4-1.8c-0.9-1.3-1.8-2.6-2.5-4c-1-1.7-1.7-3.3-2.4-4.8c0-0.1,0-0.2,0-0.3c-0.1-2,0.1-4,0.4-6
	c0.3-1.6,0.7-3.3,1.2-4.8c0.1,0.3,0.2,0.6,0.3,0.9c0.6,2.2,1.7,4.2,3.2,5.9l0,0c0.3,0.4,0.7,0.7,1.1,1
	C31.9,35.1,31.9,39.7,32.2,44.4 M34.7,8.7c-0.2,1.6-0.4,3.2-0.7,4.8c-0.2,1.1-0.4,2.3-0.6,3.4c-0.4,2.7-0.7,5.4-0.9,8
	c-0.1,1.2-0.2,2.5-0.3,3.7c-1.3-1.4-2.3-3-2.8-4.8c-0.4-1.2-0.8-2.5-1-3.7c1-2.9,2.4-5.7,4-8.3c0.7-1.1,1.5-2.1,2.4-3.1
	c0,0.1,0,0.1,0,0.2 M42.1,35.2c-0.4,4-1.3,7.9-2.7,11.7c-0.5,1.5-1.2,3.1-1.9,4.5S36,54.1,35,55.3c-0.3-1.6-0.4-3.1-0.6-4.5
	s-0.3-2.9-0.4-4.4c1-0.9,1.9-2,2.8-3c2.1-2.4,3.9-5.2,5.3-8.1L42.1,35.2 M43.8,29.3c0-0.2,0-0.3,0-0.4C43.6,25.5,43,22,42,18.7
	c0-0.2-0.1-0.4-0.2-0.5l-0.2-0.6c-0.6-2-1.3-3.9-2.2-5.8s-2-3.7-3.2-5.3c-0.2-0.3-0.6-0.4-0.9-0.2c-0.1,0-0.3,0-0.4,0.1
	c-0.5,0.2-0.9,0.6-1.2,1l0,0c-0.4,0.5-0.8,1-1.2,1.6l-0.2,0.3c-0.9,1.1-1.6,2.2-2.3,3.3c-0.9,1.7-1.7,3.4-2.4,5.2
	c-0.9,2.1-1.6,4.2-2.3,6.3c-0.6,2.2-1,4.4-1.1,6.6c-0.2,4.4,0.2,8.8,1.2,13.1c0.5,2.1,1.1,4.2,2,6.2s2,3.9,3.4,5.6
	c0.6,0.8,1.4,1.5,2.2,2.1c0.2,0.2,0.5,0.3,0.8,0.4c0.1,0.7,0.3,1.4,0.5,2.1v0.1v0.1c0.1,0.3,0.3,0.5,0.5,0.5H35
	c0.2,0,0.5-0.1,0.6-0.3c0.2-0.2,0.3-0.5,0.2-0.7c-0.2-0.8-0.4-1.6-0.6-2.5c1.1-1.2,2-2.5,2.8-3.9s1.5-2.9,2.1-4.4
	c1.3-3.4,2.2-7,2.8-10.6c0.5-2.9,0.8-5.9,0.7-8.9C43.8,29.4,43.8,29.4,43.8,29.3"/>
<path d="M32.6,2.2c0.6,0,1.1-0.5,1.1-1.1S33.2,0,32.6,0c-0.6,0-1.1,0.5-1.1,1.1l0,0C31.5,1.7,32,2.2,32.6,2.2"/>
<path d="M38.8,2.2c0.6,0,1.1-0.5,1.1-1.1S39.4,0,38.8,0s-1.1,0.5-1.1,1.1l0,0C37.7,1.7,38.2,2.2,38.8,2.2"/>
</svg>
