<svg id="Слой_1" data-name="Слой 1" xmlns="http://www.w3.org/2000/svg" viewBox="0 0 227.99 106.49"><defs><style>.cls-1{fill:#fff;}</style></defs><title>Монтажная область 2</title><path d="M114.29,53.79a6.22,6.22,0,0,0,3-2.38.72.72,0,0,0-.23-1,.8.8,0,0,0-1.14.22,4.23,4.23,0,0,1-1.41,1.32,4.93,4.93,0,0,1-1.87.63,6.17,6.17,0,0,1-3.1-.51V26.92c0-.15,0-.3,0-.45a34.27,34.27,0,0,1,6.9,7.9,31.25,31.25,0,0,1,4.12,9.92,30.28,30.28,0,0,1-1.44,17.76,32.21,32.21,0,0,1-6,9.71,35.77,35.77,0,0,1-3.6,3.5V53.75a8,8,0,0,0,2.27.43,6.43,6.43,0,0,0,2.5-.39M120.58,39a34.08,34.08,0,0,0-6.37-10.25,38,38,0,0,0-5.05-4.64.67.67,0,0,0-.72-.06.87.87,0,0,0-.49.73V51.34l-.39-.17a5.63,5.63,0,0,0-4-.06,11.25,11.25,0,0,0-3.55,2,.68.68,0,0,0-.09,1,.84.84,0,0,0,1.2.14l.06-.05.08-.05.63-.45a10.57,10.57,0,0,1,1.87-1,4.49,4.49,0,0,1,2.38-.39,6.77,6.77,0,0,1,1.84.7V70.5c0,.7,0,1.41,0,2.1,0,1.39,0,2.82,0,4.23,0,0,0,0,0,.05s0,0,0,0a.86.86,0,0,0,.49.73.73.73,0,0,0,.33.08.65.65,0,0,0,.4-.14,34.72,34.72,0,0,0,13-19.85,32.77,32.77,0,0,0,.75-6.88A32.31,32.31,0,0,0,120.58,39"/><path d="M94.1,71a34.49,34.49,0,0,0-4.35-4.58A33.51,33.51,0,0,0,94,59.51a30.34,30.34,0,0,0,2.41-7.88,32.12,32.12,0,0,0-2-17.29,33.84,33.84,0,0,0-4.29-7.49,5.9,5.9,0,0,0-2.82-2.38,1.49,1.49,0,0,0-1.36.18c-.85.65-.82,2.4-.81,3.55,0,.14,0,.27,0,.39V65.15c0,1.33,0,2.69,0,4,0,2.63,0,5.35,0,8,0,0,0,.08,0,.12s0,0,0,.06a.8.8,0,0,0,1.59,0V31c0-.42,0-.85,0-1.27,0-.84,0-1.7,0-2.55,0-.06,0-.12,0-.19a1.93,1.93,0,0,1,.14-1L87,26a2.65,2.65,0,0,1,.69.46,15.93,15.93,0,0,1,3.07,4.08l.09.14a31.31,31.31,0,0,1,3.33,7.79,30.49,30.49,0,0,1,1.1,8.4,29.66,29.66,0,0,1-4.69,15.68,32.48,32.48,0,0,1-2.47,3.36.81.81,0,0,0,0,1.12A32.43,32.43,0,0,1,96.19,77.2a.71.71,0,0,0,1,.32.81.81,0,0,0,.38-1.1A33,33,0,0,0,94.1,71"/><path d="M65.69,49.56l.43-.29.2-.14a20.87,20.87,0,0,0,4-3.63,16,16,0,0,0,2.77-4.59,43.73,43.73,0,0,1,.92,5.9c0,.54.08,1.09.1,1.65-.87,4.83-3.7,9.82-8.41,14.83a129.43,129.43,0,0,1,0-13.73M70,43.43a17,17,0,0,1-4.21,4.16c.06-.93.12-1.87.2-2.8.23-2.85.54-5.72.93-8.52.17-1.21.38-2.43.58-3.61.25-1.46.51-3,.69-4.45a34.83,34.83,0,0,1,3.49,7.62c.23.67.44,1.35.64,2A13.17,13.17,0,0,1,70,43.43M59,58.66a43.4,43.4,0,0,0,2.32,3.78,13.79,13.79,0,0,0,3,3.19c.08,1,.17,2,.27,3,.24,2.26.52,4.32.86,6.3a18.55,18.55,0,0,1-3.33-4.29,28,28,0,0,1-2.33-5.38A42,42,0,0,1,58.05,57c.29.55.6,1.12.93,1.69m5.18,4.72a17.22,17.22,0,0,1-1.43-1.77,40.21,40.21,0,0,1-2.52-4c-1-1.7-1.74-3.26-2.43-4.78,0-.1,0-.2,0-.3a29.59,29.59,0,0,1,.4-6,39,39,0,0,1,1.24-4.84c.09.29.18.59.29.91a15.3,15.3,0,0,0,3.23,5.89l0,0a6.54,6.54,0,0,0,1.13,1,130.15,130.15,0,0,0,.06,13.84m2.51-35.65c-.16,1.59-.45,3.2-.72,4.76-.2,1.11-.4,2.26-.56,3.39-.38,2.7-.68,5.39-.91,8-.11,1.22-.2,2.46-.27,3.67a11.9,11.9,0,0,1-2.8-4.85,23.79,23.79,0,0,1-1-3.74,40.89,40.89,0,0,1,4-8.29,31.87,31.87,0,0,1,2.36-3.14c0,.07,0,.15,0,.22M74,54.21a51.93,51.93,0,0,1-2.68,11.73,36.27,36.27,0,0,1-1.89,4.51,22.09,22.09,0,0,1-2.46,3.86c-.26-1.55-.45-3.08-.61-4.52s-.31-2.9-.42-4.36a37.08,37.08,0,0,0,2.75-3,37.36,37.36,0,0,0,5.25-8.06l.06-.14m1.78-5.92c0-.15,0-.28,0-.4a46.19,46.19,0,0,0-1.77-10.18,2.91,2.91,0,0,0-.16-.55l-.18-.59a44.5,44.5,0,0,0-2.22-5.83,28.11,28.11,0,0,0-3.23-5.33.65.65,0,0,0-.88-.18,1.38,1.38,0,0,0-.39.07,2.79,2.79,0,0,0-1.17,1l0,0c-.43.5-.83,1-1.22,1.56l-.22.3A26.66,26.66,0,0,0,62,31.52a55.87,55.87,0,0,0-2.42,5.17A54.77,54.77,0,0,0,57.33,43a29.65,29.65,0,0,0-1.12,6.62,47.51,47.51,0,0,0,1.22,13.09,35.55,35.55,0,0,0,2,6.2,23.67,23.67,0,0,0,3.39,5.57A14.53,14.53,0,0,0,65,76.61a2.22,2.22,0,0,0,.85.42,18.33,18.33,0,0,0,.49,2.05l0,.07,0,.06a.74.74,0,0,0,.54.54l.2,0a.88.88,0,0,0,.62-.26.73.73,0,0,0,.17-.73c-.22-.78-.41-1.59-.6-2.47a21.37,21.37,0,0,0,2.83-3.93A34.11,34.11,0,0,0,72.21,68,51.83,51.83,0,0,0,75,57.42a44.82,44.82,0,0,0,.7-8.88.84.84,0,0,0,0-.25"/><path d="M89.18,34.12a1.1,1.1,0,1,0-1.1-1.1,1.1,1.1,0,0,0,1.1,1.1"/><path d="M64.53,21.21a1.1,1.1,0,1,0-1.1-1.1,1.1,1.1,0,0,0,1.1,1.1"/><path d="M70.72,21.21a1.1,1.1,0,1,0-1.1-1.1,1.1,1.1,0,0,0,1.1,1.1"/><path d="M46.8,25.26h0a.79.79,0,0,0-.82.77c-.22,5.83-.5,12-.82,18.33-.21,4.14-.47,9-.81,13.94,0,.5-.07,1-.1,1.51a63.52,63.52,0,0,1-.82,7.73,16.77,16.77,0,0,1-2.71,6.54,21.52,21.52,0,0,1-8.37,6.66.69.69,0,0,0-.41.58.88.88,0,0,0,.39.76.79.79,0,0,0,.44.14.83.83,0,0,0,.37-.09,25.44,25.44,0,0,0,7-5,17.62,17.62,0,0,0,4.37-7.32,39,39,0,0,0,1.19-8.27c0-.39.06-.79.09-1.18.35-4.63.61-9.35.85-13.76.22-4.16.43-8.58.64-13.5,0-.74.08-1.5.12-2.23.09-1.56.19-3.18.17-4.76,0,0,0,0,0-.06s0,0,0,0a.73.73,0,0,0-.74-.78"/><rect x="131.98" y="42.95" width="42.44" height="12.17"/><rect x="131.98" y="52.55" width="57.22" height="11"/><path class="cls-1" d="M140.16,47c1.06,0,1.6.55,1.6,1.66v2.8c0,.11,0,.16-.16.16h-.27c-.11,0-.16,0-.16-.16V48.65c0-.76-.36-1.14-1.08-1.14a2.49,2.49,0,0,0-1.19.3,1.75,1.75,0,0,1,.17.82v2.8c0,.11,0,.16-.16.16h-.27c-.11,0-.16,0-.16-.16V48.65a1,1,0,0,0-1.11-1.14,2.34,2.34,0,0,0-.92.17.23.23,0,0,0-.14.24v3.51a.14.14,0,0,1-.16.16h-.28a.14.14,0,0,1-.16-.16V47.74a.46.46,0,0,1,.33-.5,3.44,3.44,0,0,1,1.4-.28,1.55,1.55,0,0,1,1.13.38,3.79,3.79,0,0,1,1.58-.37"/><path class="cls-1" d="M144.67,47.09a.14.14,0,0,1,.16.16v4.17a.14.14,0,0,1-.16.16h-.28a.14.14,0,0,1-.16-.16V47.25a.14.14,0,0,1,.16-.16Zm-.11-1.61c.24,0,.32.08.32.32v.06c0,.24-.08.32-.32.32h-.05c-.25,0-.32-.08-.32-.32v-.06c0-.24.08-.32.32-.32Z"/><path class="cls-1" d="M149.27,47A1.52,1.52,0,0,1,151,48.67v2.75a.14.14,0,0,1-.16.16h-.27c-.11,0-.16,0-.16-.16V48.69a1.06,1.06,0,0,0-1.22-1.19,3.38,3.38,0,0,0-1.16.19.22.22,0,0,0-.13.22v3.51a.14.14,0,0,1-.16.16h-.28a.14.14,0,0,1-.16-.16V47.74c0-.27.06-.37.33-.48a4.17,4.17,0,0,1,1.62-.3"/><path class="cls-1" d="M156.43,47.76a3.52,3.52,0,0,0-1.28-.26,1.09,1.09,0,0,0-1.24,1.22v1.22c0,.81.44,1.22,1.3,1.22a3,3,0,0,0,1-.17c.14-.06.17-.09.17-.23Zm-3.1.94A1.55,1.55,0,0,1,155.05,47a4.36,4.36,0,0,1,1.38.25V45.28a.14.14,0,0,1,.16-.16h.27c.11,0,.16,0,.16.16V51c0,.28-.06.36-.34.47a3.86,3.86,0,0,1-1.51.26c-1.22,0-1.83-.58-1.83-1.75Z"/><path class="cls-1" d="M161.78,45.12c.13,0,.16,0,.16.16v.23c0,.11-.05.17-.16.17a1.43,1.43,0,0,0-1,.25,1.28,1.28,0,0,0-.27,1v.22h1.27c.13,0,.16,0,.16.16v.23a.14.14,0,0,1-.16.16h-1.27v3.79c0,.11,0,.16-.16.16h-.27a.14.14,0,0,1-.16-.16V47.63h-.78a.14.14,0,0,1-.16-.16v-.23c0-.11,0-.16.16-.16h.78v-.22c0-1.25.51-1.73,1.76-1.75Z"/><path class="cls-1" d="M167.45,47.09a.14.14,0,0,1,.16.16v3.68c0,.27-.06.37-.33.48a4.27,4.27,0,0,1-1.63.29,1.52,1.52,0,0,1-1.73-1.7V47.25c0-.11,0-.16.16-.16h.27c.13,0,.16,0,.16.16V50a1.07,1.07,0,0,0,1.22,1.2,3,3,0,0,0,1.13-.19.25.25,0,0,0,.16-.24V47.25a.14.14,0,0,1,.16-.16Z"/><path class="cls-1" d="M170.71,51.42c0,.11,0,.16-.16.16h-.27c-.11,0-.16,0-.16-.16V45.28c0-.11,0-.16.16-.16h.27c.13,0,.16,0,.16.16Z"/><path class="cls-1" d="M137.91,55.52a.14.14,0,0,1,.16.16v.23a.14.14,0,0,1-.16.16h-.29a3.33,3.33,0,0,0-1.15.18.23.23,0,0,0-.15.23V60a.14.14,0,0,1-.16.16h-.28a.14.14,0,0,1-.16-.16v-3.7a.45.45,0,0,1,.33-.49,4.7,4.7,0,0,1,1.58-.27Z"/><path class="cls-1" d="M143,57.3a1.35,1.35,0,0,0-2.7,0v.31H143Zm-3.28.07a1.94,1.94,0,0,1,3.87,0v.48c0,.17-.09.24-.26.24h-3v.51c0,.76.46,1.2,1.31,1.2A1.44,1.44,0,0,0,143,59a.18.18,0,0,1,.25-.06l.18.1c.11.06.13.14.06.25a2,2,0,0,1-1.87.94,1.65,1.65,0,0,1-1.89-1.76Z"/><path class="cls-1" d="M147.47,55.52a1.73,1.73,0,0,1,1.78,1,.14.14,0,0,1-.08.23l-.22.1a.15.15,0,0,1-.22-.08c-.2-.45-.53-.66-1.26-.66s-1.14.25-1.14.76.17.6.53.7a3.91,3.91,0,0,0,.79.12,2.92,2.92,0,0,1,1.2.3,1,1,0,0,1,.51,1c0,.84-.61,1.34-1.79,1.34a1.79,1.79,0,0,1-1.89-1.08c0-.11,0-.17.1-.21l.23-.08a.16.16,0,0,1,.21.1,1.26,1.26,0,0,0,1.34.76c.82,0,1.23-.26,1.23-.79s-.38-.71-1.27-.8a3.89,3.89,0,0,1-1-.18,1.17,1.17,0,0,1-.42-.22,1.2,1.2,0,0,1-.36-.92c0-.81.6-1.31,1.72-1.31"/><path class="cls-1" d="M152.42,54.61c.13,0,.16,0,.16.16v.89h1.27a.14.14,0,0,1,.16.16V56a.14.14,0,0,1-.16.16h-1.27v2.27a1.36,1.36,0,0,0,.26,1,1.43,1.43,0,0,0,1,.24c.1,0,.16.05.16.17v.24c0,.11,0,.16-.16.16a2,2,0,0,1-1.42-.37,1.91,1.91,0,0,1-.41-1.41V56.2h-.83A.14.14,0,0,1,151,56v-.23a.14.14,0,0,1,.16-.16H152v-.89a.14.14,0,0,1,.16-.16Z"/><path class="cls-1" d="M158.83,58.13Q158,58,157.63,58c-.92,0-1.26.25-1.26.86s.27.87,1.24.87a3.15,3.15,0,0,0,1.06-.14c.14-.06.17-.09.17-.25Zm-1.16-2.6a1.52,1.52,0,0,1,1.75,1.73v2.29c0,.31-.07.39-.32.5a3.78,3.78,0,0,1-1.45.23,2.38,2.38,0,0,1-1.48-.33,1.23,1.23,0,0,1-.4-1c0-1,.53-1.35,1.92-1.35a10.86,10.86,0,0,1,1.14.09v-.4c0-.76-.3-1.2-1.18-1.2a1.28,1.28,0,0,0-1.22.64.16.16,0,0,1-.22.07l-.21-.09c-.11,0-.14-.11-.09-.23a1.81,1.81,0,0,1,1.76-.92"/><path class="cls-1" d="M165.35,55.66a.14.14,0,0,1,.16.16V59.5c0,.27-.06.37-.33.48a4.26,4.26,0,0,1-1.63.29,1.52,1.52,0,0,1-1.73-1.7V55.81c0-.11,0-.16.16-.16h.27c.13,0,.16,0,.16.16v2.72a1.07,1.07,0,0,0,1.22,1.2,3,3,0,0,0,1.14-.19.25.25,0,0,0,.16-.24V55.81a.14.14,0,0,1,.16-.16Z"/><path class="cls-1" d="M170.15,55.52a.14.14,0,0,1,.16.16v.23a.14.14,0,0,1-.16.16h-.29a3.33,3.33,0,0,0-1.15.18.23.23,0,0,0-.15.23V60a.14.14,0,0,1-.16.16h-.28A.14.14,0,0,1,168,60v-3.7a.45.45,0,0,1,.33-.49,4.7,4.7,0,0,1,1.58-.27Z"/><path class="cls-1" d="M175,58.13q-.79-.08-1.2-.08c-.92,0-1.26.25-1.26.86s.27.87,1.24.87a3.15,3.15,0,0,0,1.06-.14c.14-.06.17-.09.17-.25Zm-1.16-2.6a1.52,1.52,0,0,1,1.75,1.73v2.29c0,.31-.07.39-.31.5a3.79,3.79,0,0,1-1.45.23,2.38,2.38,0,0,1-1.48-.33,1.23,1.23,0,0,1-.4-1c0-1,.53-1.35,1.92-1.35a10.86,10.86,0,0,1,1.14.09v-.4c0-.76-.3-1.2-1.18-1.2a1.28,1.28,0,0,0-1.22.64.16.16,0,0,1-.22.07l-.21-.09c-.11,0-.14-.11-.09-.23a1.81,1.81,0,0,1,1.75-.92"/><path class="cls-1" d="M179.94,55.52a1.52,1.52,0,0,1,1.74,1.71V60a.14.14,0,0,1-.16.16h-.27c-.11,0-.16,0-.16-.16V57.25a1.06,1.06,0,0,0-1.22-1.19,3.38,3.38,0,0,0-1.16.19.22.22,0,0,0-.13.22V60a.14.14,0,0,1-.16.16h-.28A.14.14,0,0,1,178,60V56.3c0-.27.06-.37.33-.48a4.17,4.17,0,0,1,1.62-.3"/><path class="cls-1" d="M185,54.61c.13,0,.16,0,.16.16v.89h1.27a.14.14,0,0,1,.16.16V56a.14.14,0,0,1-.16.16h-1.27v2.27a1.36,1.36,0,0,0,.26,1,1.43,1.43,0,0,0,1,.24c.1,0,.16.05.16.17v.24c0,.11,0,.16-.16.16a2,2,0,0,1-1.42-.37,1.91,1.91,0,0,1-.41-1.41V56.2h-.83a.14.14,0,0,1-.16-.16v-.23a.14.14,0,0,1,.16-.16h.83v-.89a.14.14,0,0,1,.16-.16Z"/></svg>