<svg xmlns="http://www.w3.org/2000/svg" xmlns:xlink="http://www.w3.org/1999/xlink" x="0px" y="0px" viewBox="0 0 157.3 63.2" style="enable-background:new 0 0 157.3 63.2;" xml:space="preserve">
<style type="text/css">.st0{fill:#FFFFFF;}</style>
<path d="M82.4,34.8c1.2-0.5,2.3-1.3,3-2.4c0.2-0.3,0.1-0.8-0.2-1c0,0,0,0,0,0c-0.4-0.3-0.9-0.2-1.1,0.2c0,0,0,0,0,0
	c-0.4,0.5-0.8,1-1.4,1.3c-0.6,0.3-1.2,0.5-1.9,0.6c-1.1,0.1-2.1-0.1-3.1-0.5V7.9c0-0.1,0-0.3,0-0.5c2.7,2.3,5,4.9,6.9,7.9
	c1.9,3,3.3,6.4,4.1,9.9c1.3,5.9,0.8,12.1-1.4,17.8c-1.4,3.6-3.4,6.9-6,9.7c-1.1,1.2-2.3,2.4-3.6,3.5V34.7c0.7,0.3,1.5,0.4,2.3,0.4
	C80.7,35.2,81.6,35.1,82.4,34.8 M88.6,20c-1.5-3.8-3.7-7.2-6.4-10.3C80.7,8,79,6.5,77.2,5.1C77,4.9,76.7,4.9,76.5,5
	C76.2,5.2,76,5.5,76,5.8v26.6l-0.4-0.2c-1.3-0.5-2.7-0.5-4-0.1c-1.3,0.4-2.5,1.1-3.6,2c-0.3,0.2-0.4,0.7-0.1,1c0,0,0,0,0,0
	c0.3,0.4,0.8,0.4,1.2,0.2c0,0,0,0,0,0l0.1,0l0.1,0l0.6-0.5c0.6-0.4,1.2-0.7,1.9-1c0.7-0.3,1.6-0.5,2.4-0.4c0.6,0.1,1.3,0.4,1.8,0.7
	v17.5c0,0.7,0,1.4,0,2.1c0,1.4,0,2.8,0,4.2c0,0,0,0,0,0.1s0,0,0,0c0,0.3,0.2,0.6,0.5,0.7c0.1,0.1,0.2,0.1,0.3,0.1
	c0.1,0,0.3,0,0.4-0.1c6.5-4.9,11.1-11.9,13-19.8c0.5-2.3,0.7-4.6,0.8-6.9C91,27.8,90.2,23.7,88.6,20"/>
<path d="M62.2,52c-1.3-1.7-2.8-3.2-4.3-4.6c1.7-2.1,3.1-4.4,4.3-6.9c1.2-2.5,2-5.2,2.4-7.9c0.9-5.8,0.2-11.8-2-17.3
	c-1.1-2.7-2.5-5.2-4.3-7.5c-0.7-1.1-1.6-1.9-2.8-2.4c-0.5-0.2-1-0.1-1.4,0.2c-0.8,0.6-0.8,2.4-0.8,3.5c0,0.1,0,0.3,0,0.4v36.6
	c0,1.3,0,2.7,0,4c0,2.6,0,5.3,0,8c0,0,0,0.1,0,0.1s0,0,0,0.1c0,0.4,0.4,0.8,0.9,0.7c0.4,0,0.7-0.3,0.7-0.7V12c0-0.4,0-0.9,0-1.3
	c0-0.8,0-1.7,0-2.5c0-0.1,0-0.1,0-0.2c0-0.3,0-0.7,0.1-1l0.1,0c0.3,0.1,0.5,0.3,0.7,0.5C57,8.6,58,10,58.8,11.5l0.1,0.1
	c1.5,2.4,2.6,5.1,3.3,7.8c0.8,2.7,1.1,5.6,1.1,8.4c-0.1,5.6-1.7,11-4.7,15.7c-0.8,1.2-1.6,2.3-2.5,3.4c-0.3,0.3-0.3,0.8,0,1.1
	c3.3,2.8,6.1,6.3,8.1,10.2c0.2,0.4,0.6,0.5,0.9,0.4c0,0,0,0,0.1,0c0.4-0.2,0.6-0.7,0.4-1.1c0,0,0,0,0,0C64.7,55.5,63.5,53.7,62.2,52
	"/>
<path d="M33.8,30.6l0.4-0.3l0.2-0.1c1.5-1,2.8-2.3,4-3.6c1.2-1.4,2.1-2.9,2.8-4.6c0.4,1.9,0.7,3.9,0.9,5.9c0,0.5,0.1,1.1,0.1,1.7
	c-0.9,4.8-3.7,9.8-8.4,14.8C33.5,39.7,33.5,35.1,33.8,30.6 M38.1,24.4c-1.1,1.6-2.6,3-4.2,4.2c0.1-0.9,0.1-1.9,0.2-2.8
	c0.2-2.8,0.5-5.7,0.9-8.5c0.2-1.2,0.4-2.4,0.6-3.6c0.3-1.5,0.5-3,0.7-4.5c1.5,2.4,2.6,4.9,3.5,7.6c0.2,0.7,0.4,1.3,0.6,2
	C40.1,20.8,39.3,22.8,38.1,24.4 M27.1,39.7c0.7,1.3,1.5,2.6,2.3,3.8c0.8,1.2,1.8,2.3,3,3.2c0.1,1,0.2,2,0.3,3
	c0.2,2.3,0.5,4.3,0.9,6.3c-1.3-1.3-2.4-2.7-3.3-4.3c-1-1.7-1.7-3.5-2.3-5.4c-0.9-2.7-1.4-5.5-1.7-8.3C26.4,38.5,26.7,39.1,27.1,39.7
	 M32.2,44.4c-0.5-0.6-1-1.1-1.4-1.8c-0.9-1.3-1.8-2.6-2.5-4c-1-1.7-1.7-3.3-2.4-4.8c0-0.1,0-0.2,0-0.3c-0.1-2,0.1-4,0.4-6
	c0.3-1.6,0.7-3.3,1.2-4.8c0.1,0.3,0.2,0.6,0.3,0.9c0.6,2.2,1.7,4.2,3.2,5.9l0,0c0.3,0.4,0.7,0.7,1.1,1
	C31.9,35.1,31.9,39.7,32.2,44.4 M34.7,8.7c-0.2,1.6-0.4,3.2-0.7,4.8c-0.2,1.1-0.4,2.3-0.6,3.4c-0.4,2.7-0.7,5.4-0.9,8
	c-0.1,1.2-0.2,2.5-0.3,3.7c-1.3-1.4-2.3-3-2.8-4.8c-0.4-1.2-0.8-2.5-1-3.7c1-2.9,2.4-5.7,4-8.3c0.7-1.1,1.5-2.1,2.4-3.1
	c0,0.1,0,0.1,0,0.2 M42.1,35.2c-0.4,4-1.3,7.9-2.7,11.7c-0.5,1.5-1.2,3.1-1.9,4.5c-0.7,1.4-1.5,2.7-2.5,3.9
	c-0.3-1.6-0.4-3.1-0.6-4.5s-0.3-2.9-0.4-4.4c1-0.9,1.9-2,2.8-3c2.1-2.4,3.9-5.2,5.3-8.1L42.1,35.2 M43.8,29.3c0-0.2,0-0.3,0-0.4
	c-0.2-3.4-0.8-6.9-1.8-10.2c0-0.2-0.1-0.4-0.2-0.5l-0.2-0.6c-0.6-2-1.3-3.9-2.2-5.8c-0.9-1.9-2-3.7-3.2-5.3
	c-0.2-0.3-0.6-0.4-0.9-0.2c-0.1,0-0.3,0-0.4,0.1c-0.5,0.2-0.9,0.6-1.2,1l0,0c-0.4,0.5-0.8,1-1.2,1.6l-0.2,0.3
	c-0.9,1.1-1.6,2.2-2.3,3.3c-0.9,1.7-1.7,3.4-2.4,5.2c-0.9,2.1-1.6,4.2-2.3,6.3c-0.6,2.2-1,4.4-1.1,6.6c-0.2,4.4,0.2,8.8,1.2,13.1
	c0.5,2.1,1.1,4.2,2,6.2c0.9,2,2,3.9,3.4,5.6c0.6,0.8,1.4,1.5,2.2,2.1c0.2,0.2,0.5,0.3,0.8,0.4c0.1,0.7,0.3,1.4,0.5,2.1v0.1v0.1
	c0.1,0.3,0.3,0.5,0.5,0.5h0.2c0.2,0,0.5-0.1,0.6-0.3c0.2-0.2,0.3-0.5,0.2-0.7c-0.2-0.8-0.4-1.6-0.6-2.5c1.1-1.2,2-2.5,2.8-3.9
	c0.8-1.4,1.5-2.9,2.1-4.4c1.3-3.4,2.2-7,2.8-10.6c0.5-2.9,0.8-5.9,0.7-8.9C43.8,29.4,43.8,29.4,43.8,29.3"/>
<path d="M57.2,15.1c0.6,0,1.1-0.5,1.1-1.1c0-0.6-0.5-1.1-1.1-1.1c-0.6,0-1.1,0.5-1.1,1.1v0C56.1,14.6,56.6,15.1,57.2,15.1"/>
<path d="M32.6,2.2c0.6,0,1.1-0.5,1.1-1.1c0-0.6-0.5-1.1-1.1-1.1c-0.6,0-1.1,0.5-1.1,1.1c0,0,0,0,0,0C31.5,1.7,32,2.2,32.6,2.2"/>
<path d="M38.8,2.2c0.6,0,1.1-0.5,1.1-1.1c0-0.6-0.5-1.1-1.1-1.1c-0.6,0-1.1,0.5-1.1,1.1c0,0,0,0,0,0C37.7,1.7,38.2,2.2,38.8,2.2"/>
<path d="M14.9,6.3L14.9,6.3c-0.4,0-0.8,0.3-0.8,0.8c0,0,0,0,0,0c-0.2,5.8-0.5,12-0.8,18.3c-0.2,4.1-0.5,9-0.8,13.9
	c0,0.5-0.1,1-0.1,1.5c-0.1,2.6-0.4,5.2-0.8,7.7c-0.4,2.3-1.4,4.6-2.7,6.5c-2.2,2.9-5.1,5.2-8.4,6.7C0.2,61.8,0,62.1,0,62.3
	c0,0.3,0.1,0.6,0.4,0.8c0.1,0.1,0.3,0.1,0.4,0.1c0.1,0,0.3,0,0.4-0.1c2.6-1.3,5-2.9,7-5c2-2,3.5-4.6,4.4-7.3
	c0.7-2.7,1.1-5.5,1.2-8.3c0-0.4,0.1-0.8,0.1-1.2c0.3-4.6,0.6-9.4,0.8-13.8c0.2-4.2,0.4-8.6,0.6-13.5c0-0.7,0.1-1.5,0.1-2.2
	c0.1-1.6,0.2-3.2,0.2-4.8c0,0,0,0,0-0.1s0,0,0,0C15.7,6.6,15.4,6.3,14.9,6.3C14.9,6.3,14.9,6.3,14.9,6.3"/>
<rect x="100" y="23.9" width="42.4" height="12.2"/>
<rect x="100" y="33.5" width="57.2" height="11"/>
<path class="st0" d="M108.2,28c1.1,0,1.6,0.5,1.6,1.7v2.8c0,0.1,0,0.2-0.2,0.2h-0.3c-0.1,0-0.2,0-0.2-0.2v-2.8
	c0-0.8-0.4-1.1-1.1-1.1c-0.4,0-0.8,0.1-1.2,0.3c0.1,0.3,0.2,0.5,0.2,0.8v2.8c0,0.1,0,0.2-0.2,0.2h-0.3c-0.1,0-0.2,0-0.2-0.2v-2.8
	c0.1-0.5-0.3-1.1-0.8-1.1c-0.1,0-0.2,0-0.3,0c-0.3,0-0.6,0.1-0.9,0.2c-0.1,0-0.2,0.1-0.1,0.2v3.5c0,0.1,0,0.1-0.1,0.2c0,0,0,0,0,0
	h-0.3c-0.1,0-0.1,0-0.2-0.1c0,0,0,0,0,0v-3.7c0-0.2,0.1-0.4,0.3-0.5c0.4-0.2,0.9-0.3,1.4-0.3c0.4,0,0.8,0.1,1.1,0.4
	C107.1,28.1,107.7,28,108.2,28"/>
<path class="st0" d="M112.7,28.1c0.1,0,0.1,0,0.2,0.1c0,0,0,0,0,0v4.2c0,0.1,0,0.1-0.1,0.2c0,0,0,0,0,0h-0.3c-0.1,0-0.1,0-0.2-0.1
	c0,0,0,0,0,0v-4.2c0-0.1,0-0.1,0.1-0.2c0,0,0,0,0,0H112.7z M112.6,26.5c0.2,0,0.3,0.1,0.3,0.3v0.1c0,0.2-0.1,0.3-0.3,0.3h-0.1
	c-0.3,0-0.3-0.1-0.3-0.3v-0.1C112.3,26.5,112.3,26.5,112.6,26.5L112.6,26.5z"/>
<path class="st0" d="M117.3,28c0.8-0.1,1.6,0.5,1.7,1.3c0,0.1,0,0.3,0,0.4v2.8c0,0.1,0,0.1-0.1,0.2c0,0,0,0,0,0h-0.3
	c-0.1,0-0.2,0-0.2-0.2v-2.7c0.1-0.6-0.3-1.1-0.9-1.2c-0.1,0-0.2,0-0.3,0c-0.4,0-0.8,0.1-1.2,0.2c-0.1,0-0.1,0.1-0.1,0.2v3.5
	c0,0.1,0,0.1-0.1,0.2c0,0,0,0,0,0h-0.3c-0.1,0-0.1,0-0.2-0.1c0,0,0,0,0,0v-3.7c0-0.3,0.1-0.4,0.3-0.5C116.2,28,116.8,27.9,117.3,28"
	/>
<path class="st0" d="M124.5,28.8c-0.4-0.2-0.8-0.3-1.3-0.3c-0.6-0.1-1.1,0.3-1.2,0.9c0,0.1,0,0.2,0,0.3v1.2c0,0.8,0.4,1.2,1.3,1.2
	c0.3,0,0.7-0.1,1-0.2c0.1-0.1,0.2-0.1,0.2-0.2L124.5,28.8z M121.4,29.7c-0.1-0.9,0.5-1.6,1.4-1.7c0.1,0,0.2,0,0.3,0
	c0.5,0,0.9,0.1,1.4,0.3v-2c0-0.1,0-0.1,0.1-0.2c0,0,0,0,0,0h0.3c0.1,0,0.2,0,0.2,0.2V32c0,0.3-0.1,0.4-0.3,0.5
	c-0.5,0.2-1,0.3-1.5,0.3c-1.2,0-1.8-0.6-1.8-1.8L121.4,29.7z"/>
<path class="st0" d="M129.8,26.1c0.1,0,0.2,0,0.2,0.2v0.2c0,0.1-0.1,0.2-0.2,0.2c-0.4,0-0.7,0-1,0.3c-0.2,0.3-0.3,0.6-0.3,1v0.2h1.3
	c0.1,0,0.2,0,0.2,0.2v0.2c0,0.1,0,0.1-0.1,0.2c0,0,0,0,0,0h-1.3v3.8c0,0.1,0,0.2-0.2,0.2h-0.3c-0.1,0-0.1,0-0.2-0.1c0,0,0,0,0,0
	v-3.9h-0.8c-0.1,0-0.1,0-0.2-0.1c0,0,0,0,0,0v-0.2c0-0.1,0-0.2,0.2-0.2h0.8v-0.2c0-1.3,0.5-1.7,1.8-1.8L129.8,26.1z"/>
<path class="st0" d="M135.5,28.1c0.1,0,0.1,0,0.2,0.1c0,0,0,0,0,0v3.7c0,0.3-0.1,0.4-0.3,0.5c-0.5,0.2-1.1,0.3-1.6,0.3
	c-0.8,0.1-1.6-0.5-1.7-1.3c0-0.1,0-0.3,0-0.4v-2.8c0-0.1,0-0.2,0.2-0.2h0.3c0.1,0,0.2,0,0.2,0.2V31c-0.1,0.6,0.3,1.1,0.9,1.2
	c0.1,0,0.2,0,0.3,0c0.4,0,0.8-0.1,1.1-0.2c0.1,0,0.2-0.1,0.2-0.2v-3.5c0-0.1,0-0.1,0.1-0.2c0,0,0,0,0,0H135.5z"/>
<path class="st0" d="M138.8,32.4c0,0.1,0,0.2-0.2,0.2h-0.3c-0.1,0-0.2,0-0.2-0.2v-6.1c0-0.1,0-0.2,0.2-0.2h0.3c0.1,0,0.2,0,0.2,0.2
	V32.4z"/>
<path class="st0" d="M106,36.5c0.1,0,0.1,0,0.2,0.1c0,0,0,0,0,0v0.2c0,0.1,0,0.1-0.1,0.2c0,0,0,0,0,0h-0.3c-0.4,0-0.8,0.1-1.1,0.2
	c-0.1,0-0.2,0.1-0.1,0.2V41c0,0.1,0,0.1-0.1,0.2c0,0,0,0,0,0h-0.3c-0.1,0-0.1,0-0.2-0.1c0,0,0,0,0,0v-3.7c0-0.2,0.1-0.4,0.3-0.5
	c0.5-0.2,1-0.3,1.6-0.3L106,36.5z"/>
<path class="st0" d="M111.1,38.3c0-0.7-0.6-1.3-1.4-1.3c-0.7,0-1.3,0.6-1.3,1.3v0.3h2.7V38.3z M107.8,38.4c0.1-1.1,1-1.9,2.1-1.8
	c1,0.1,1.7,0.8,1.8,1.8v0.5c0,0.2-0.1,0.2-0.3,0.2h-3v0.5c0,0.8,0.5,1.2,1.3,1.2c0.6,0,1.1-0.3,1.4-0.8c0.1-0.1,0.2-0.1,0.2-0.1
	c0,0,0,0,0,0l0.2,0.1c0.1,0.1,0.1,0.1,0.1,0.3c-0.4,0.6-1.1,1-1.9,0.9c-0.9,0.1-1.7-0.5-1.9-1.4c0-0.1,0-0.2,0-0.4L107.8,38.4z"/>
<path class="st0" d="M115.5,36.5c0.7-0.1,1.5,0.3,1.8,1c0.1,0.1,0,0.1,0,0.2c0,0,0,0-0.1,0l-0.2,0.1c-0.1,0-0.2,0-0.2-0.1
	c0,0,0,0,0,0c-0.2-0.5-0.5-0.7-1.3-0.7s-1.1,0.3-1.1,0.8s0.2,0.6,0.5,0.7c0.3,0.1,0.5,0.1,0.8,0.1c0.4,0,0.8,0.1,1.2,0.3
	c0.4,0.2,0.6,0.6,0.5,1c0,0.8-0.6,1.3-1.8,1.3c-0.8,0.1-1.6-0.3-1.9-1.1c0-0.1,0-0.2,0.1-0.2l0.2-0.1c0.1,0,0.2,0,0.2,0.1
	c0,0,0,0,0,0c0.2,0.5,0.8,0.8,1.3,0.8c0.8,0,1.2-0.3,1.2-0.8s-0.4-0.7-1.3-0.8c-0.3,0-0.7-0.1-1-0.2c-0.2,0-0.3-0.1-0.4-0.2
	c-0.2-0.2-0.4-0.6-0.4-0.9C113.8,37.1,114.4,36.6,115.5,36.5"/>
<path class="st0" d="M120.5,35.6c0.1,0,0.2,0,0.2,0.2v0.9h1.3c0.1,0,0.1,0,0.2,0.1c0,0,0,0,0,0V37c0,0.1,0,0.1-0.1,0.2c0,0,0,0,0,0
	h-1.3v2.3c0,0.4,0,0.7,0.3,1c0.3,0.2,0.6,0.3,1,0.2c0.1,0,0.2,0,0.2,0.2v0.2c0,0.1,0,0.2-0.2,0.2c-0.5,0.1-1-0.1-1.4-0.4
	c-0.3-0.4-0.5-0.9-0.4-1.4v-2.3h-0.8c-0.1,0-0.2,0-0.2-0.1c0,0,0-0.1,0-0.1v-0.2c0-0.1,0-0.1,0.1-0.2c0,0,0,0,0,0h0.8v-0.9
	c0-0.1,0-0.1,0.1-0.2c0,0,0,0,0,0L120.5,35.6z"/>
<path class="st0" d="M126.9,39.1c-0.6-0.1-1-0.1-1.2-0.1c-0.9,0-1.3,0.3-1.3,0.9s0.3,0.9,1.2,0.9c0.4,0,0.7,0,1.1-0.1
	c0.1-0.1,0.2-0.1,0.2-0.3L126.9,39.1z M125.7,36.5c0.8-0.1,1.6,0.4,1.7,1.3c0,0.2,0,0.3,0,0.5v2.3c0,0.3-0.1,0.4-0.3,0.5
	c-0.5,0.2-1,0.2-1.4,0.2c-0.5,0.1-1-0.1-1.5-0.3c-0.3-0.3-0.4-0.6-0.4-1c0-1,0.5-1.3,1.9-1.3c0.4,0,0.8,0,1.1,0.1v-0.4
	c0-0.8-0.3-1.2-1.2-1.2c-0.5,0-1,0.2-1.2,0.6c0,0.1-0.1,0.1-0.2,0.1c0,0,0,0,0,0l-0.2-0.1c-0.1,0-0.1-0.1-0.1-0.2
	C124.3,36.8,125,36.5,125.7,36.5"/>
<path class="st0" d="M133.4,36.7c0.1,0,0.1,0,0.2,0.1c0,0,0,0,0,0v3.7c0,0.3-0.1,0.4-0.3,0.5c-0.5,0.2-1.1,0.3-1.6,0.3
	c-0.8,0.1-1.6-0.5-1.7-1.3c0-0.1,0-0.3,0-0.4v-2.8c0-0.1,0-0.2,0.2-0.2h0.3c0.1,0,0.2,0,0.2,0.2v2.7c-0.1,0.6,0.3,1.1,0.9,1.2
	c0.1,0,0.2,0,0.3,0c0.4,0,0.8-0.1,1.1-0.2c0.1,0,0.2-0.1,0.2-0.2v-3.5c0-0.1,0-0.1,0.1-0.2c0,0,0,0,0,0L133.4,36.7z"/>
<path class="st0" d="M138.2,36.5c0.1,0,0.1,0,0.2,0.1c0,0,0,0,0,0v0.2c0,0.1,0,0.1-0.1,0.2c0,0,0,0,0,0h-0.3c-0.4,0-0.8,0.1-1.1,0.2
	c-0.1,0-0.2,0.1-0.1,0.2V41c0,0.1,0,0.1-0.1,0.2c0,0,0,0,0,0h-0.3c-0.1,0-0.1-0.1-0.1-0.2c0,0,0,0,0,0v-3.7c0-0.2,0.1-0.4,0.3-0.5
	c0.5-0.2,1-0.3,1.6-0.3L138.2,36.5z"/>
<path class="st0" d="M143.1,39.1c-0.5-0.1-0.9-0.1-1.2-0.1c-0.9,0-1.3,0.3-1.3,0.9s0.3,0.9,1.2,0.9c0.4,0,0.7,0,1.1-0.1
	c0.1-0.1,0.2-0.1,0.2-0.3L143.1,39.1z M141.9,36.5c0.8-0.1,1.6,0.4,1.7,1.3c0,0.2,0,0.3,0,0.5v2.3c0,0.3-0.1,0.4-0.3,0.5
	c-0.5,0.2-1,0.2-1.4,0.2c-0.5,0.1-1-0.1-1.5-0.3c-0.3-0.3-0.4-0.6-0.4-1c0-1,0.5-1.3,1.9-1.3c0.4,0,0.8,0,1.1,0.1v-0.4
	c0-0.8-0.3-1.2-1.2-1.2c-0.5,0-1,0.2-1.2,0.6c0,0.1-0.1,0.1-0.2,0.1c0,0,0,0,0,0l-0.2-0.1c-0.1,0-0.1-0.1-0.1-0.2
	C140.5,36.8,141.2,36.5,141.9,36.5"/>
<path class="st0" d="M148,36.5c0.8-0.1,1.6,0.4,1.7,1.3c0,0.1,0,0.3,0,0.4V41c0,0.1,0,0.1-0.1,0.2c0,0,0,0,0,0h-0.3
	c-0.1,0-0.2,0-0.2-0.2v-2.8c0.1-0.6-0.3-1.1-0.9-1.2c-0.1,0-0.2,0-0.3,0c-0.4,0-0.8,0.1-1.2,0.2c-0.1,0-0.1,0.1-0.1,0.2V41
	c0,0.1,0,0.1-0.1,0.2c0,0,0,0,0,0h-0.3c-0.1,0-0.1-0.1-0.1-0.1c0,0,0,0,0,0v-3.7c0-0.3,0.1-0.4,0.3-0.5
	C146.9,36.6,147.5,36.5,148,36.5"/>
<path class="st0" d="M153.1,35.6c0.1,0,0.2,0,0.2,0.2v0.9h1.3c0.1,0,0.1,0,0.2,0.1c0,0,0,0,0,0V37c0,0.1,0,0.1-0.1,0.2c0,0,0,0,0,0
	h-1.3v2.3c0,0.4,0,0.7,0.3,1c0.3,0.2,0.6,0.3,1,0.2c0.1,0,0.2,0,0.2,0.2v0.2c0,0.1,0,0.2-0.2,0.2c-0.5,0.1-1-0.1-1.4-0.4
	c-0.3-0.4-0.5-0.9-0.4-1.4v-2.3h-0.8c-0.1,0-0.1,0-0.2-0.1c0,0,0,0,0,0v-0.2c0-0.1,0-0.1,0.1-0.2c0,0,0,0,0,0h0.8v-0.9
	c0-0.1,0-0.1,0.1-0.2c0,0,0,0,0,0L153.1,35.6z"/>
</svg>
